<svg xmlns="http://www.w3.org/2000/svg" version="1.1" xmlns:xlink="http://www.w3.org/1999/xlink" xmlns:svgjs="http://svgjs.dev/svgjs" width="3000" height="2000" preserveAspectRatio="none" viewBox="0 0 3000 2000"><g mask="url(&quot;#SvgjsMask1671&quot;)" fill="none"><rect width="3000" height="2000" x="0" y="0" fill="rgba(255, 255, 255, 1)"></rect><path d="M -1603.9323240496497,1157 C -1403.93,1057.2 -1003.93,651.4 -603.9323240496498,658 C -203.93,664.6 -3.93,1228.8 396.06767595035024,1190 C 796.07,1151.2 996.07,433.6 1396.0676759503503,464 C 1796.07,494.4 2075.28,1332.8 2396.0676759503503,1342 C 2716.85,1351.2 2879.21,676.4 3000,510" stroke="rgba(0, 66, 49, 1)" stroke-width="2"></path><path d="M -225.7014784953543,1030 C -25.7,902 374.3,328 774.2985215046457,390 C 1174.3,452 1374.3,1406.2 1774.2985215046456,1340 C 2174.3,1273.8 2374.3,2.4 2774.2985215046456,59 C 3174.3,115.6 3729.16,1533.4 3774.2985215046456,1623 C 3819.44,1712.6 3154.86,730.2 3000,507" stroke="rgba(0, 66, 49, 1)" stroke-width="2"></path><path d="M -1404.708554724315,727 C -1204.71,813.2 -804.71,1115.6 -404.708554724315,1158 C -4.71,1200.4 195.29,866.2 595.291445275685,939 C 995.29,1011.8 1195.29,1617.2 1595.291445275685,1522 C 1995.29,1426.8 2314.35,563.2 2595.291445275685,463 C 2876.23,362.8 2919.06,909.4 3000,1021" stroke="rgba(0, 66, 49, 1)" stroke-width="2"></path><path d="M -1815.6894241945365,1940 C -1615.69,1603.4 -1215.69,260.2 -815.6894241945366,257 C -415.69,253.8 -215.69,1872 184.31057580546337,1924 C 584.31,1976 784.31,609.4 1184.3105758054635,517 C 1584.31,424.6 1821.17,1508 2184.3105758054635,1462 C 2547.45,1416 2836.86,522 3000,287" stroke="rgba(0, 66, 49, 1)" stroke-width="2"></path><path d="M -1876.710275527877,1079 C -1676.71,928.6 -1276.71,315.8 -876.710275527877,327 C -476.71,338.2 -276.71,1157.6 123.289724472123,1135 C 523.29,1112.4 723.29,185.2 1123.289724472123,214 C 1523.29,242.8 1747.95,1238.6 2123.289724472123,1279 C 2498.63,1319.4 2824.66,588.6 3000,416" stroke="rgba(0, 66, 49, 1)" stroke-width="2"></path><path d="M -1115.8275662523695,1137 C -915.83,975.4 -515.83,179 -115.82756625236956,329 C 284.17,479 484.17,1922.2 884.1724337476304,1887 C 1284.17,1851.8 1484.17,158.6 1884.1724337476305,153 C 2284.17,147.4 2661.01,1829.8 2884.1724337476303,1859 C 3107.34,1888.2 2976.83,611 3000,299" stroke="rgba(0, 66, 49, 1)" stroke-width="2"></path><path d="M -358.8652563647754,750 C -158.87,915.6 241.13,1549 641.1347436352246,1578 C 1041.13,1607 1241.13,892.8 1641.1347436352246,895 C 2041.13,897.2 2241.13,1649.4 2641.1347436352244,1589 C 3041.13,1528.6 3569.36,571.6 3641.1347436352244,593 C 3712.91,614.4 3128.23,1475.4 3000,1696" stroke="rgba(0, 66, 49, 1)" stroke-width="2"></path><path d="M -1033.4955413468558,975 C -833.5,1018 -433.5,1188.2 -33.49554134685573,1190 C 366.5,1191.8 566.5,882.6 966.5044586531443,984 C 1366.5,1085.4 1566.5,1875.8 1966.5044586531442,1697 C 2366.5,1518.2 2759.81,190.6 2966.5044586531444,90 C 3173.2,-10.6 2993.3,973.2 3000,1194" stroke="rgba(0, 66, 49, 1)" stroke-width="2"></path></g><defs><mask id="SvgjsMask1671"><rect width="3000" height="2000" fill="#ffffff"></rect></mask></defs></svg>