<svg width="720" height="169" viewBox="0 0 720 169" fill="none" xmlns="http://www.w3.org/2000/svg">
<path d="M719.312 122.875C715.521 124.417 712.062 125.458 708.938 126C705.812 126.542 703 126.812 700.5 126.812C698.5 126.812 696.771 126.688 695.312 126.438C693.854 126.229 692.604 125.958 691.562 125.625C690.354 125.25 689.312 124.833 688.438 124.375C686.604 123.333 685 121.979 683.625 120.312C682.25 118.646 681 116.854 679.875 114.938C678.792 113.021 677.812 111.042 676.938 109C676.062 106.958 675.208 105.042 674.375 103.25L672.812 99.9375C668.604 101.146 664.667 102.542 661 104.125C657.375 105.667 654.146 107.208 651.312 108.75C648.479 110.25 646.083 111.646 644.125 112.938C642.208 114.188 640.854 115.104 640.062 115.688C638.521 117.396 636.792 118.917 634.875 120.25C632.958 121.583 630.812 122.729 628.438 123.688C626.062 124.604 623.417 125.312 620.5 125.812C617.583 126.312 614.375 126.562 610.875 126.562L610.25 123.875C614.292 123.208 617.771 121.917 620.688 120C623.646 118.083 626.188 115.729 628.312 112.938C630.438 110.104 632.25 106.938 633.75 103.438C635.25 99.8958 636.583 96.1667 637.75 92.25C638.417 90 639.292 87.625 640.375 85.125C641.5 82.625 642.833 80.2083 644.375 77.875C645.958 75.5 647.75 73.2917 649.75 71.25C651.792 69.1667 654.104 67.4167 656.688 66C655.979 64.6667 655.271 63.3125 654.562 61.9375C653.896 60.5208 653.25 59.1042 652.625 57.6875C651.75 56.0208 650.875 54.1875 650 52.1875C649.125 50.1458 648.083 48.2708 646.875 46.5625C645.708 44.8125 644.312 43.3542 642.688 42.1875C641.104 41.0208 639.125 40.4375 636.75 40.4375C635.083 40.4375 633.438 40.625 631.812 41C630.229 41.375 628.708 41.8333 627.25 42.375L626.375 39.8125C630 38.6042 633.667 37.5833 637.375 36.75C641.125 35.875 644.833 35.4375 648.5 35.4375C650.25 35.4375 651.979 35.5625 653.688 35.8125C655.396 36.0208 657.042 36.4167 658.625 37C660 37.5 661.333 38.3333 662.625 39.5C663.917 40.625 665.146 41.9792 666.312 43.5625C667.479 45.1042 668.562 46.7708 669.562 48.5625C670.604 50.3542 671.562 52.1458 672.438 53.9375C673.354 55.7292 674.167 57.4375 674.875 59.0625C675.625 60.6458 676.271 62.0208 676.812 63.1875C680.479 71.0625 684.125 78.9583 687.75 86.875C691.375 94.75 695.271 102.521 699.438 110.188C700.188 111.562 700.979 112.917 701.812 114.25C702.688 115.583 703.646 116.771 704.688 117.812C705.771 118.854 706.958 119.688 708.25 120.312C709.542 120.938 711 121.229 712.625 121.188C713.208 121.188 714 121.125 715 121C716.042 120.875 717.167 120.562 718.375 120.062L719.312 122.875ZM660.188 73.1875C659.104 74.9375 658.104 76.75 657.188 78.625C656.312 80.5 655.5 82.4167 654.75 84.375C654 86.2917 653.312 88.2083 652.688 90.125C652.062 92.0417 651.438 93.875 650.812 95.625C650.188 97.5417 649.5 99.4167 648.75 101.25C648.042 103.042 647.229 104.792 646.312 106.5C649.438 104.667 653.104 102.75 657.312 100.75C661.521 98.75 666.021 97.0417 670.812 95.625L660.188 73.1875Z" fill="black"/>
<path d="M521.438 78.5625C521.438 75.2708 521.292 72 521 68.75C520.75 65.4583 520.292 62.3333 519.625 59.375C519 56.375 518.167 53.6042 517.125 51.0625C516.125 48.4792 514.875 46.25 513.375 44.375C511.875 42.4583 510.104 40.9583 508.062 39.875C506.062 38.7917 503.771 38.25 501.188 38.25C497.479 38.25 494.146 39.3333 491.188 41.5C488.271 43.625 485.771 46.5 483.688 50.125C481.604 53.7083 480 57.8542 478.875 62.5625C477.792 67.2292 477.25 72.1042 477.25 77.1875C477.25 82.8125 477.854 87.9167 479.062 92.5C480.312 97.0417 481.875 101.104 483.75 104.688C485.625 108.271 487.667 111.396 489.875 114.062C492.083 116.729 494.146 118.938 496.062 120.688C498.021 122.438 499.688 123.771 501.062 124.688C502.479 125.604 503.292 126.104 503.5 126.188H479.562C478.771 125.812 477.667 124.979 476.25 123.688C474.875 122.396 473.333 120.729 471.625 118.688C469.958 116.646 468.25 114.271 466.5 111.562C464.792 108.812 463.229 105.833 461.812 102.625C460.396 99.375 459.229 95.9167 458.312 92.25C457.438 88.5417 457 84.7083 457 80.75C457 78.3333 457.208 75.5 457.625 72.25C458.083 69 458.896 65.6667 460.062 62.25C461.229 58.7917 462.812 55.3958 464.812 52.0625C466.854 48.7292 469.438 45.75 472.562 43.125C475.688 40.5 479.438 38.375 483.812 36.75C488.188 35.125 493.333 34.3125 499.25 34.3125C503.167 34.3125 506.708 34.6875 509.875 35.4375C513.083 36.1458 515.979 37.1458 518.562 38.4375C521.146 39.6875 523.438 41.1667 525.438 42.875C527.438 44.5833 529.208 46.4167 530.75 48.375C532.292 46.4167 534.125 44.5833 536.25 42.875C538.375 41.1667 540.812 39.6875 543.562 38.4375C546.312 37.1458 549.417 36.1458 552.875 35.4375C556.375 34.6875 560.271 34.3125 564.562 34.3125C570.312 34.3125 575.375 34.9583 579.75 36.25C584.167 37.5417 587.979 39.2917 591.188 41.5C594.438 43.6667 597.125 46.1875 599.25 49.0625C601.417 51.8958 603.146 54.875 604.438 58C605.771 61.0833 606.708 64.2292 607.25 67.4375C607.792 70.6042 608.062 73.5833 608.062 76.375C608.062 81.625 607.271 86.4167 605.688 90.75C604.104 95.0417 602.062 98.9167 599.562 102.375C597.062 105.792 594.25 108.833 591.125 111.5C588.042 114.167 584.979 116.479 581.938 118.438C578.896 120.354 576.042 121.958 573.375 123.25C570.75 124.5 568.625 125.479 567 126.188H561.5C561.708 126.104 562.5 125.604 563.875 124.688C565.25 123.729 566.917 122.354 568.875 120.562C570.833 118.771 572.917 116.521 575.125 113.812C577.333 111.104 579.375 107.917 581.25 104.25C583.125 100.583 584.688 96.4375 585.938 91.8125C587.188 87.1458 587.812 81.9583 587.812 76.25C587.812 70.375 587.125 65.0833 585.75 60.375C584.375 55.6667 582.521 51.6875 580.188 48.4375C577.896 45.1458 575.229 42.625 572.188 40.875C569.146 39.125 565.958 38.25 562.625 38.25C559.958 38.25 557.583 38.7917 555.5 39.875C553.417 40.9583 551.583 42.4583 550 44.375C548.417 46.25 547.062 48.4792 545.938 51.0625C544.854 53.6042 543.958 56.375 543.25 59.375C542.542 62.3333 542.021 65.4583 541.688 68.75C541.396 72 541.25 75.2708 541.25 78.5625V126.188H521.438V78.5625Z" fill="#004231"/>
<path d="M346.5 81.375C346.5 77.9167 346.979 74.375 347.938 70.75C348.896 67.0833 350.312 63.5625 352.188 60.1875C354.062 56.7708 356.375 53.5625 359.125 50.5625C361.917 47.5208 365.104 44.875 368.688 42.625C372.312 40.375 376.354 38.6042 380.812 37.3125C385.271 35.9792 390.104 35.3125 395.312 35.3125C400.688 35.3125 405.625 35.9167 410.125 37.125C414.667 38.3333 418.75 40 422.375 42.125C426.042 44.25 429.25 46.7708 432 49.6875C434.792 52.6042 437.104 55.7708 438.938 59.1875C440.812 62.5625 442.208 66.1458 443.125 69.9375C444.083 73.7292 444.562 77.5417 444.562 81.375C444.562 85.0417 444.083 88.75 443.125 92.5C442.208 96.25 440.812 99.875 438.938 103.375C437.104 106.875 434.792 110.167 432 113.25C429.25 116.333 426.042 119.021 422.375 121.312C418.75 123.604 414.667 125.417 410.125 126.75C405.625 128.083 400.688 128.75 395.312 128.75C390.021 128.75 385.146 128.083 380.688 126.75C376.229 125.458 372.188 123.667 368.562 121.375C364.979 119.083 361.812 116.396 359.062 113.312C356.312 110.229 354 106.938 352.125 103.438C350.25 99.9375 348.833 96.3125 347.875 92.5625C346.958 88.7708 346.5 85.0417 346.5 81.375ZM368 81.125C368 84.6667 368.188 88.1667 368.562 91.625C368.979 95.0833 369.625 98.3958 370.5 101.562C371.375 104.688 372.5 107.604 373.875 110.312C375.292 112.979 377 115.312 379 117.312C381 119.312 383.312 120.896 385.938 122.062C388.562 123.229 391.542 123.833 394.875 123.875C398.208 123.875 401.229 123.292 403.938 122.125C406.646 120.917 409.042 119.292 411.125 117.25C413.208 115.208 415 112.812 416.5 110.062C418 107.312 419.25 104.396 420.25 101.312C421.25 98.1875 421.979 94.9583 422.438 91.625C422.938 88.25 423.229 84.9583 423.312 81.75C423.312 78.4583 423.104 75.1458 422.688 71.8125C422.312 68.4792 421.667 65.2917 420.75 62.25C419.875 59.1667 418.729 56.2917 417.312 53.625C415.896 50.9583 414.167 48.6458 412.125 46.6875C410.083 44.6875 407.729 43.125 405.062 42C402.396 40.875 399.354 40.3125 395.938 40.3125C392.604 40.3125 389.604 40.8125 386.938 41.8125C384.312 42.8125 381.958 44.2292 379.875 46.0625C377.833 47.8958 376.062 50.0625 374.562 52.5625C373.104 55.0625 371.896 57.8333 370.938 60.875C369.979 63.9167 369.25 67.1458 368.75 70.5625C368.292 73.9792 368.042 77.5 368 81.125Z" fill="black"/>
<path d="M270.625 11.125H301.438V121.312H346.875C345.292 122.854 343.958 124.646 342.875 126.688C341.792 128.729 340.917 130.688 340.25 132.562C339.5 134.771 338.896 137 338.438 139.25L335.5 139.875C335.708 139.125 335.833 138.375 335.875 137.625C335.958 136.875 336 136.188 336 135.562C336 132.812 335.125 130.771 333.375 129.438C331.667 128.104 329.208 127.188 326 126.688C322.792 126.229 318.875 126.042 314.25 126.125C309.625 126.167 304.417 126.188 298.625 126.188H270.625V123.875C272.833 123.875 274.646 123.667 276.062 123.25C277.479 122.792 278.604 122.188 279.438 121.438C280.271 120.646 280.833 119.75 281.125 118.75C281.458 117.75 281.625 116.688 281.625 115.562V21.625C281.625 20.7917 281.458 19.8958 281.125 18.9375C280.833 17.9792 280.271 17.1042 279.438 16.3125C278.646 15.4792 277.542 14.7917 276.125 14.25C274.708 13.7083 272.875 13.4375 270.625 13.4375V11.125Z" fill="black"/>
<path d="M260.75 78.8125C260.75 85.5208 259.542 91.8958 257.125 97.9375C254.708 103.938 251.208 109.229 246.625 113.812C242.042 118.396 236.438 122.042 229.812 124.75C223.188 127.417 215.667 128.75 207.25 128.75C205.125 128.75 203.021 128.625 200.938 128.375C198.854 128.167 196.812 127.771 194.812 127.188V140.375C194.812 141.375 194.458 142.458 193.75 143.625C193.083 144.792 192.188 146.042 191.062 147.375C189.979 148.75 188.729 150.208 187.312 151.75C185.896 153.333 184.438 155 182.938 156.75C181.479 158.5 180.062 160.333 178.688 162.25C177.312 164.208 176.083 166.271 175 168.438V47.0625C175 46.2292 174.833 45.3333 174.5 44.375C174.208 43.4167 173.646 42.5417 172.812 41.75C172.021 40.9167 170.917 40.2292 169.5 39.6875C168.083 39.1458 166.25 38.875 164 38.875V36.5625H194.812C197.396 36.5625 200.312 36.6458 203.562 36.8125C206.854 36.9792 210.292 37.3125 213.875 37.8125C217.458 38.2708 221.104 38.9583 224.812 39.875C228.521 40.75 232.104 41.9167 235.562 43.375C239.021 44.7917 242.271 46.5417 245.312 48.625C248.396 50.7083 251.083 53.1875 253.375 56.0625C255.667 58.9375 257.458 62.25 258.75 66C260.083 69.75 260.75 74.0208 260.75 78.8125ZM240.25 83.5625C240.25 77.9375 239.521 73.0208 238.062 68.8125C236.604 64.6042 234.646 60.9583 232.188 57.875C229.771 54.7917 226.979 52.2292 223.812 50.1875C220.688 48.1458 217.438 46.5 214.062 45.25C210.729 43.9583 207.375 43.0208 204 42.4375C200.667 41.8125 197.604 41.3958 194.812 41.1875V121.312C197.146 122.604 199.688 123.458 202.438 123.875C205.188 124.292 207.812 124.5 210.312 124.5C214.229 124.5 217.688 123.875 220.688 122.625C223.729 121.375 226.354 119.708 228.562 117.625C230.771 115.5 232.625 113.062 234.125 110.312C235.625 107.521 236.812 104.604 237.688 101.562C238.604 98.5208 239.25 95.4583 239.625 92.375C240.042 89.2917 240.25 86.3542 240.25 83.5625Z" fill="black"/>
<path d="M154.75 126.188H112.875V123.875C115.125 123.875 116.958 123.646 118.375 123.188C119.833 122.688 120.958 122.042 121.75 121.25C122.583 120.458 123.146 119.542 123.438 118.5C123.729 117.458 123.875 116.354 123.875 115.188V47.0625C123.875 46.2292 123.708 45.3333 123.375 44.375C123.083 43.4167 122.521 42.5417 121.688 41.75C120.896 40.9167 119.792 40.2292 118.375 39.6875C116.958 39.1458 115.125 38.875 112.875 38.875V36.5625H154.75V38.875C152.458 38.875 150.583 39.125 149.125 39.625C147.708 40.0833 146.583 40.7292 145.75 41.5625C144.958 42.3542 144.417 43.2708 144.125 44.3125C143.833 45.3542 143.688 46.4583 143.688 47.625V115.188C143.688 116.021 143.812 116.938 144.062 117.938C144.354 118.938 144.875 119.875 145.625 120.75C146.417 121.625 147.542 122.375 149 123C150.458 123.583 152.375 123.875 154.75 123.875V126.188Z" fill="black"/>
<path d="M44.1875 129.25C38.1458 129.25 32.4375 128.229 27.0625 126.188C21.7292 124.146 17.0417 121.292 13 117.625C9 113.917 5.83333 109.521 3.5 104.438C1.16667 99.3542 0 93.7708 0 87.6875C0 81.9792 1.1875 76.5833 3.5625 71.5C5.9375 66.4167 9.33333 61.7708 13.75 57.5625C18.1667 53.3125 23.5208 49.5833 29.8125 46.375C36.1042 43.125 43.1458 40.5 50.9375 38.5L46.1875 35.1875C43.2292 33.1875 41.1042 30.8333 39.8125 28.125C38.5208 25.375 37.875 22.5625 37.875 19.6875C37.875 17.6042 38.1667 15.5417 38.75 13.5C39.375 11.4583 40.2292 9.5625 41.3125 7.8125C42.3958 6.0625 43.6667 4.52083 45.125 3.1875C46.5833 1.8125 48.1875 0.75 49.9375 0L51.4375 2.3125C48.6458 4.3125 47.25 6.60417 47.25 9.1875C47.25 11.5625 48.3333 14.1042 50.5 16.8125C52.6667 19.5208 55.8125 22.3542 59.9375 25.3125C66.8958 30.3958 73 35.1875 78.25 39.6875C83.5417 44.1458 87.9583 48.5833 91.5 53C95.0833 57.4167 97.7917 61.9167 99.625 66.5C101.458 71.0417 102.438 75.9583 102.562 81.25C102.562 86.625 101.792 91.5417 100.25 96C98.7083 100.417 96.5833 104.417 93.875 108C91.1667 111.542 87.9583 114.646 84.25 117.312C80.5417 119.979 76.5208 122.208 72.1875 124C67.8542 125.75 63.3125 127.062 58.5625 127.938C53.8125 128.812 49.0208 129.25 44.1875 129.25ZM81.4375 86.375C81.4375 82.2083 80.9792 78.2708 80.0625 74.5625C79.1875 70.8125 77.7292 67.1458 75.6875 63.5625C73.6875 59.9792 71.0208 56.4167 67.6875 52.875C64.3958 49.3333 60.3125 45.6875 55.4375 41.9375C52.1458 42.6458 49.0208 43.75 46.0625 45.25C43.1042 46.7083 40.3542 48.5 37.8125 50.625C35.2708 52.7083 32.9583 55.0833 30.875 57.75C28.8333 60.375 27.0833 63.1875 25.625 66.1875C24.2083 69.1458 23.1042 72.25 22.3125 75.5C21.5208 78.7083 21.125 81.9583 21.125 85.25C21.125 88.5 21.4792 91.7083 22.1875 94.875C22.8958 98 23.8958 101 25.1875 103.875C26.5208 106.708 28.1458 109.333 30.0625 111.75C31.9792 114.167 34.125 116.25 36.5 118C38.9167 119.75 41.5417 121.125 44.375 122.125C47.25 123.125 50.2917 123.625 53.5 123.625C57.375 123.625 61 122.729 64.375 120.938C67.7917 119.104 70.75 116.562 73.25 113.312C75.7917 110.021 77.7917 106.104 79.25 101.562C80.7083 96.9792 81.4375 91.9167 81.4375 86.375Z" fill="black"/>
</svg>
